<svg xmlns="http://www.w3.org/2000/svg" class="u-svg-content" viewBox="0 0 512 512" id="svg-190f"><path d="m371.837 498.162h-293.93c-11.464 0-20.757-9.293-20.757-20.757v-442.81c0-11.464 9.293-20.757 20.757-20.757h293.93c22.918.023 41.491 18.596 41.514 41.514v401.297c-.024 22.917-18.597 41.49-41.514 41.513zm-293.93-470.486c-3.821 0-6.919 3.098-6.919 6.919v442.811c0 3.821 3.098 6.919 6.919 6.919h293.93c15.285 0 27.676-12.391 27.676-27.676v-401.298c0-15.285-12.391-27.676-27.676-27.676h-293.93z"></path><path d="m371.837 498.162h-293.93c-11.464 0-20.757-9.293-20.757-20.757v-442.81c0-11.464 9.293-20.757 20.757-20.757h293.93c22.918.023 41.491 18.596 41.514 41.514v401.297c-.024 22.917-18.597 41.49-41.514 41.513zm-293.93-470.486c-3.821 0-6.919 3.098-6.919 6.919v442.811c0 3.821 3.098 6.919 6.919 6.919h293.93c15.285 0 27.676-12.391 27.676-27.676v-401.298c0-15.285-12.391-27.676-27.676-27.676h-293.93z"></path><path d="m413.336 498.162h-41.514c-3.821 0-6.919-3.098-6.919-6.919s3.098-6.919 6.919-6.919h41.514c15.285 0 27.676-12.391 27.676-27.676v-401.297c0-15.285-12.391-27.676-27.676-27.676h-41.514c-3.821 0-6.919-3.098-6.919-6.919s3.098-6.919 6.919-6.919h41.514c22.918.023 41.491 18.596 41.514 41.514v401.297c-.023 22.918-18.596 41.491-41.514 41.514z"></path><path d="m235.243 318.367c-64.33-.004-116.477-52.157-116.473-116.487s52.157-116.477 116.487-116.473c64.327.004 116.473 52.153 116.473 116.48-.072 64.303-52.184 116.411-116.487 116.48zm0-219.122c-56.688.004-102.639 45.961-102.635 102.649s45.961 102.639 102.649 102.635c56.685-.004 102.635-45.957 102.635-102.642-.064-56.663-45.985-102.581-102.649-102.642z"></path><path d="m235.243 318.367c-35.176 0-62.727-51.2-62.727-116.48s27.558-116.48 62.727-116.48 62.72 51.2 62.72 116.48-27.544 116.48-62.72 116.48zm0-219.122c-26.499 0-48.889 47-48.889 102.642s22.397 102.642 48.889 102.642 48.882-47.007 48.882-102.642-22.375-102.642-48.882-102.642z"></path><path d="m235.243 318.367c-3.821 0-6.919-3.098-6.919-6.919v-219.122c0-3.821 3.098-6.919 6.919-6.919s6.919 3.098 6.919 6.919v219.122c0 3.821-3.098 6.919-6.919 6.919z"></path><path d="m188.942 210.577c-64.346 0-66.276-1.91-68.054-3.66-1.341-1.332-2.102-3.14-2.117-5.03-.002-3.821 3.095-6.92 6.916-6.922 1.01 0 2.007.22 2.923.646 13.838 2.006 138.946.692 216.078-.643 3.77.064 6.848 3.036 7.043 6.801.066 3.819-2.976 6.968-6.794 7.037-73.868 1.273-123.096 1.771-155.995 1.771z"></path><path d="m351.758 380.402h-233.016c-3.821 0-6.919-3.098-6.919-6.919s3.098-6.919 6.919-6.919h233.015c3.821 0 6.919 3.098 6.919 6.919.001 3.821-3.097 6.919-6.918 6.919z"></path><path d="m318.27 426.593h-166.054c-3.821 0-6.919-3.098-6.919-6.919s3.098-6.919 6.919-6.919h166.054c3.821 0 6.919 3.098 6.919 6.919s-3.098 6.919-6.919 6.919z"></path><path d="m327.265 149.449h-184.043c-3.821 0-6.919-3.098-6.919-6.919s3.098-6.919 6.919-6.919h184.043c3.821 0 6.919 3.098 6.919 6.919s-3.098 6.919-6.919 6.919z"></path><path d="m325.48 270.862h-180.459c-3.821 0-6.919-3.098-6.919-6.919s3.098-6.919 6.919-6.919h180.459c3.821 0 6.919 3.098 6.919 6.919s-3.098 6.919-6.919 6.919z"></path></svg>